M48
;DRILL file {KiCad 4.0.0-rc1-stable} date 19/10/2015 9:36:22 p.m.
;FORMAT={-:-/ absolute / metric / decimal}
FMAT,2
METRIC,TZ
T1C0.400
T2C1.100
%
G90
G05
M71
T1
X109.855Y-112.395
X111.76Y-93.345
X114.3Y-107.315
X116.84Y-107.315
X119.38Y-93.345
X119.38Y-112.395
X120.015Y-102.87
X121.92Y-92.71
X121.92Y-112.395
X123.19Y-93.345
X125.095Y-88.265
X128.905Y-94.615
X129.54Y-93.345
X129.54Y-112.395
X132.08Y-88.265
X132.08Y-113.03
X133.985Y-90.805
X138.43Y-97.79
X138.43Y-108.585
X147.32Y-104.14
X150.495Y-86.36
X153.035Y-86.995
X154.305Y-104.14
X155.575Y-87.63
X158.115Y-88.265
X172.085Y-111.125
X175.895Y-104.775
X177.165Y-107.315
X180.975Y-104.775
T2
X140.335Y-95.25
X140.335Y-99.06
X140.335Y-101.6
X140.335Y-104.14
X140.335Y-106.68
X140.335Y-110.49
X142.875Y-95.25
X142.875Y-110.49
X145.415Y-95.25
X145.415Y-110.49
X147.955Y-95.25
X147.955Y-110.49
X150.495Y-95.25
X150.495Y-110.49
X153.035Y-95.25
X153.035Y-110.49
X155.575Y-95.25
X155.575Y-110.49
X158.115Y-95.25
X158.115Y-110.49
X160.655Y-95.25
X160.655Y-110.49
X163.195Y-95.25
X163.195Y-110.49
X165.735Y-95.25
X165.735Y-110.49
X168.275Y-95.25
X168.275Y-110.49
X170.815Y-96.52
X170.815Y-99.06
X170.815Y-101.6
X170.815Y-104.14
X170.815Y-106.68
X170.815Y-109.22
T0
M30
