G04 #@! TF.FileFunction,Soldermask,Bot*
%FSLAX46Y46*%
G04 Gerber Fmt 4.6, Leading zero omitted, Abs format (unit mm)*
G04 Created by KiCad (PCBNEW 4.0.0-rc1-stable) date 20/10/2015 4:38:48 p.m.*
%MOMM*%
G01*
G04 APERTURE LIST*
%ADD10C,0.100000*%
%ADD11R,1.900000X1.700000*%
%ADD12R,1.700000X1.900000*%
%ADD13R,2.200860X1.200100*%
%ADD14R,3.940000X1.670000*%
%ADD15C,2.400000*%
%ADD16R,1.670000X3.940000*%
G04 APERTURE END LIST*
D10*
D11*
X126920000Y-96520000D03*
X129620000Y-96520000D03*
D12*
X142875000Y-90090000D03*
X142875000Y-92790000D03*
X145415000Y-90090000D03*
X145415000Y-92790000D03*
X147955000Y-90090000D03*
X147955000Y-92790000D03*
X150495000Y-90090000D03*
X150495000Y-92790000D03*
X153035000Y-90090000D03*
X153035000Y-92790000D03*
X155575000Y-90090000D03*
X155575000Y-92790000D03*
X158115000Y-90090000D03*
X158115000Y-92790000D03*
X152400000Y-104695000D03*
X152400000Y-107395000D03*
X152400000Y-98980000D03*
X152400000Y-101680000D03*
D13*
X145818860Y-106995000D03*
X145818860Y-105095000D03*
X148821140Y-106045000D03*
X145818860Y-100645000D03*
X145818860Y-98745000D03*
X148821140Y-99695000D03*
D14*
X110380000Y-102235000D03*
X116840000Y-102235000D03*
X110380000Y-99695000D03*
X116840000Y-99695000D03*
X110380000Y-97155000D03*
X116840000Y-97155000D03*
D15*
X160655000Y-95250000D03*
X158115000Y-95250000D03*
X155575000Y-95250000D03*
X153035000Y-95250000D03*
X150495000Y-95250000D03*
X147955000Y-95250000D03*
X145415000Y-95250000D03*
X142875000Y-95250000D03*
X140335000Y-95250000D03*
X140335000Y-110490000D03*
X142875000Y-110490000D03*
X145415000Y-110490000D03*
X147955000Y-110490000D03*
X150495000Y-110490000D03*
X153035000Y-110490000D03*
X155575000Y-110490000D03*
X158115000Y-110490000D03*
X140335000Y-99060000D03*
X140335000Y-101600000D03*
X140335000Y-104140000D03*
X140335000Y-106680000D03*
X160655000Y-110490000D03*
X163195000Y-110490000D03*
X165735000Y-110490000D03*
X168275000Y-110490000D03*
X170815000Y-109220000D03*
X170815000Y-106680000D03*
X170815000Y-104140000D03*
X170815000Y-101600000D03*
X170815000Y-99060000D03*
X170815000Y-96520000D03*
X168275000Y-95250000D03*
X165735000Y-95250000D03*
X163195000Y-95250000D03*
D16*
X160655000Y-99695000D03*
X160655000Y-106155000D03*
X163195000Y-99695000D03*
X163195000Y-106155000D03*
X165735000Y-99695000D03*
X165735000Y-106155000D03*
M02*
