G04 #@! TF.FileFunction,Soldermask,Top*
%FSLAX46Y46*%
G04 Gerber Fmt 4.6, Leading zero omitted, Abs format (unit mm)*
G04 Created by KiCad (PCBNEW 4.0.0-rc1-stable) date 20/10/2015 4:38:48 p.m.*
%MOMM*%
G01*
G04 APERTURE LIST*
%ADD10C,0.100000*%
%ADD11R,2.100000X3.800000*%
%ADD12R,1.900000X1.700000*%
%ADD13C,2.400000*%
%ADD14R,1.700000X1.950000*%
G04 APERTURE END LIST*
D10*
D11*
X109220000Y-109830000D03*
X111760000Y-109830000D03*
X114300000Y-109830000D03*
X116840000Y-109830000D03*
X119380000Y-109830000D03*
X119380000Y-90830000D03*
X116840000Y-90830000D03*
X114300000Y-90830000D03*
X111760000Y-90830000D03*
X109220000Y-90830000D03*
D12*
X177245000Y-98425000D03*
X174545000Y-98425000D03*
X177245000Y-101600000D03*
X174545000Y-101600000D03*
D11*
X121920000Y-109830000D03*
X124460000Y-109830000D03*
X127000000Y-109830000D03*
X129540000Y-109830000D03*
X132080000Y-109830000D03*
X132080000Y-90830000D03*
X129540000Y-90830000D03*
X127000000Y-90830000D03*
X124460000Y-90830000D03*
X121920000Y-90830000D03*
D13*
X160655000Y-95250000D03*
X158115000Y-95250000D03*
X155575000Y-95250000D03*
X153035000Y-95250000D03*
X150495000Y-95250000D03*
X147955000Y-95250000D03*
X145415000Y-95250000D03*
X142875000Y-95250000D03*
X140335000Y-95250000D03*
X140335000Y-110490000D03*
X142875000Y-110490000D03*
X145415000Y-110490000D03*
X147955000Y-110490000D03*
X150495000Y-110490000D03*
X153035000Y-110490000D03*
X155575000Y-110490000D03*
X158115000Y-110490000D03*
X140335000Y-99060000D03*
X140335000Y-101600000D03*
X140335000Y-104140000D03*
X140335000Y-106680000D03*
X160655000Y-110490000D03*
X163195000Y-110490000D03*
X165735000Y-110490000D03*
X168275000Y-110490000D03*
X170815000Y-109220000D03*
X170815000Y-106680000D03*
X170815000Y-104140000D03*
X170815000Y-101600000D03*
X170815000Y-99060000D03*
X170815000Y-96520000D03*
X168275000Y-95250000D03*
X165735000Y-95250000D03*
X163195000Y-95250000D03*
D14*
X175205000Y-104775000D03*
X179705000Y-104775000D03*
X179705000Y-112725000D03*
X175205000Y-112725000D03*
X175205000Y-87300000D03*
X179705000Y-87300000D03*
X179705000Y-95250000D03*
X175205000Y-95250000D03*
M02*
