G04 #@! TF.FileFunction,Legend,Top*
%FSLAX46Y46*%
G04 Gerber Fmt 4.6, Leading zero omitted, Abs format (unit mm)*
G04 Created by KiCad (PCBNEW 4.0.0-rc1-stable) date 20/10/2015 4:38:48 p.m.*
%MOMM*%
G01*
G04 APERTURE LIST*
%ADD10C,0.100000*%
%ADD11C,0.150000*%
G04 APERTURE END LIST*
D10*
D11*
X108100000Y-90830000D02*
X108100000Y-109830000D01*
X120500000Y-109830000D02*
X120500000Y-90830000D01*
X175295000Y-97550000D02*
X176495000Y-97550000D01*
X176495000Y-99300000D02*
X175295000Y-99300000D01*
X175295000Y-100725000D02*
X176495000Y-100725000D01*
X176495000Y-102475000D02*
X175295000Y-102475000D01*
X120800000Y-90830000D02*
X120800000Y-109830000D01*
X133200000Y-109830000D02*
X133200000Y-90830000D01*
X139065000Y-93980000D02*
X139065000Y-111760000D01*
X139065000Y-111760000D02*
X172085000Y-111760000D01*
X172085000Y-111760000D02*
X172085000Y-93980000D01*
X172085000Y-93980000D02*
X139065000Y-93980000D01*
X179205714Y-108750000D02*
G75*
G03X179205714Y-108750000I-1750714J0D01*
G01*
X180680000Y-111975000D02*
X180555000Y-111975000D01*
X174230000Y-111975000D02*
X174355000Y-111975000D01*
X174230000Y-105525000D02*
X174355000Y-105525000D01*
X180555000Y-105525000D02*
X180680000Y-105525000D01*
X178855000Y-111975000D02*
X176055000Y-111975000D01*
X180680000Y-105525000D02*
X180680000Y-111975000D01*
X178855000Y-105525000D02*
X176055000Y-105525000D01*
X174230000Y-105525000D02*
X174230000Y-111975000D01*
X179205714Y-91275000D02*
G75*
G03X179205714Y-91275000I-1750714J0D01*
G01*
X180680000Y-94500000D02*
X180555000Y-94500000D01*
X174230000Y-94500000D02*
X174355000Y-94500000D01*
X174230000Y-88050000D02*
X174355000Y-88050000D01*
X180555000Y-88050000D02*
X180680000Y-88050000D01*
X178855000Y-94500000D02*
X176055000Y-94500000D01*
X180680000Y-88050000D02*
X180680000Y-94500000D01*
X178855000Y-88050000D02*
X176055000Y-88050000D01*
X174230000Y-88050000D02*
X174230000Y-94500000D01*
X112585714Y-88034762D02*
X112728571Y-88082381D01*
X112966667Y-88082381D01*
X113061905Y-88034762D01*
X113109524Y-87987143D01*
X113157143Y-87891905D01*
X113157143Y-87796667D01*
X113109524Y-87701429D01*
X113061905Y-87653810D01*
X112966667Y-87606190D01*
X112776190Y-87558571D01*
X112680952Y-87510952D01*
X112633333Y-87463333D01*
X112585714Y-87368095D01*
X112585714Y-87272857D01*
X112633333Y-87177619D01*
X112680952Y-87130000D01*
X112776190Y-87082381D01*
X113014286Y-87082381D01*
X113157143Y-87130000D01*
X113585714Y-87558571D02*
X113919048Y-87558571D01*
X114061905Y-88082381D02*
X113585714Y-88082381D01*
X113585714Y-87082381D01*
X114061905Y-87082381D01*
X115014286Y-87130000D02*
X114919048Y-87082381D01*
X114776191Y-87082381D01*
X114633333Y-87130000D01*
X114538095Y-87225238D01*
X114490476Y-87320476D01*
X114442857Y-87510952D01*
X114442857Y-87653810D01*
X114490476Y-87844286D01*
X114538095Y-87939524D01*
X114633333Y-88034762D01*
X114776191Y-88082381D01*
X114871429Y-88082381D01*
X115014286Y-88034762D01*
X115061905Y-87987143D01*
X115061905Y-87653810D01*
X114871429Y-87653810D01*
X116014286Y-88082381D02*
X115442857Y-88082381D01*
X115728571Y-88082381D02*
X115728571Y-87082381D01*
X115633333Y-87225238D01*
X115538095Y-87320476D01*
X115442857Y-87368095D01*
X179316143Y-98877381D02*
X178982809Y-98401190D01*
X178744714Y-98877381D02*
X178744714Y-97877381D01*
X179125667Y-97877381D01*
X179220905Y-97925000D01*
X179268524Y-97972619D01*
X179316143Y-98067857D01*
X179316143Y-98210714D01*
X179268524Y-98305952D01*
X179220905Y-98353571D01*
X179125667Y-98401190D01*
X178744714Y-98401190D01*
X180268524Y-98877381D02*
X179697095Y-98877381D01*
X179982809Y-98877381D02*
X179982809Y-97877381D01*
X179887571Y-98020238D01*
X179792333Y-98115476D01*
X179697095Y-98163095D01*
X180887571Y-97877381D02*
X180982810Y-97877381D01*
X181078048Y-97925000D01*
X181125667Y-97972619D01*
X181173286Y-98067857D01*
X181220905Y-98258333D01*
X181220905Y-98496429D01*
X181173286Y-98686905D01*
X181125667Y-98782143D01*
X181078048Y-98829762D01*
X180982810Y-98877381D01*
X180887571Y-98877381D01*
X180792333Y-98829762D01*
X180744714Y-98782143D01*
X180697095Y-98686905D01*
X180649476Y-98496429D01*
X180649476Y-98258333D01*
X180697095Y-98067857D01*
X180744714Y-97972619D01*
X180792333Y-97925000D01*
X180887571Y-97877381D01*
X179316143Y-102179381D02*
X178982809Y-101703190D01*
X178744714Y-102179381D02*
X178744714Y-101179381D01*
X179125667Y-101179381D01*
X179220905Y-101227000D01*
X179268524Y-101274619D01*
X179316143Y-101369857D01*
X179316143Y-101512714D01*
X179268524Y-101607952D01*
X179220905Y-101655571D01*
X179125667Y-101703190D01*
X178744714Y-101703190D01*
X180268524Y-102179381D02*
X179697095Y-102179381D01*
X179982809Y-102179381D02*
X179982809Y-101179381D01*
X179887571Y-101322238D01*
X179792333Y-101417476D01*
X179697095Y-101465095D01*
X181220905Y-102179381D02*
X180649476Y-102179381D01*
X180935190Y-102179381D02*
X180935190Y-101179381D01*
X180839952Y-101322238D01*
X180744714Y-101417476D01*
X180649476Y-101465095D01*
X125285714Y-88034762D02*
X125428571Y-88082381D01*
X125666667Y-88082381D01*
X125761905Y-88034762D01*
X125809524Y-87987143D01*
X125857143Y-87891905D01*
X125857143Y-87796667D01*
X125809524Y-87701429D01*
X125761905Y-87653810D01*
X125666667Y-87606190D01*
X125476190Y-87558571D01*
X125380952Y-87510952D01*
X125333333Y-87463333D01*
X125285714Y-87368095D01*
X125285714Y-87272857D01*
X125333333Y-87177619D01*
X125380952Y-87130000D01*
X125476190Y-87082381D01*
X125714286Y-87082381D01*
X125857143Y-87130000D01*
X126285714Y-87558571D02*
X126619048Y-87558571D01*
X126761905Y-88082381D02*
X126285714Y-88082381D01*
X126285714Y-87082381D01*
X126761905Y-87082381D01*
X127714286Y-87130000D02*
X127619048Y-87082381D01*
X127476191Y-87082381D01*
X127333333Y-87130000D01*
X127238095Y-87225238D01*
X127190476Y-87320476D01*
X127142857Y-87510952D01*
X127142857Y-87653810D01*
X127190476Y-87844286D01*
X127238095Y-87939524D01*
X127333333Y-88034762D01*
X127476191Y-88082381D01*
X127571429Y-88082381D01*
X127714286Y-88034762D01*
X127761905Y-87987143D01*
X127761905Y-87653810D01*
X127571429Y-87653810D01*
X128142857Y-87177619D02*
X128190476Y-87130000D01*
X128285714Y-87082381D01*
X128523810Y-87082381D01*
X128619048Y-87130000D01*
X128666667Y-87177619D01*
X128714286Y-87272857D01*
X128714286Y-87368095D01*
X128666667Y-87510952D01*
X128095238Y-88082381D01*
X128714286Y-88082381D01*
X153860714Y-104306667D02*
X154336905Y-104306667D01*
X153765476Y-104592381D02*
X154098809Y-103592381D01*
X154432143Y-104592381D01*
X155336905Y-104592381D02*
X155003571Y-104116190D01*
X154765476Y-104592381D02*
X154765476Y-103592381D01*
X155146429Y-103592381D01*
X155241667Y-103640000D01*
X155289286Y-103687619D01*
X155336905Y-103782857D01*
X155336905Y-103925714D01*
X155289286Y-104020952D01*
X155241667Y-104068571D01*
X155146429Y-104116190D01*
X154765476Y-104116190D01*
X155765476Y-104592381D02*
X155765476Y-103592381D01*
X156003571Y-103592381D01*
X156146429Y-103640000D01*
X156241667Y-103735238D01*
X156289286Y-103830476D01*
X156336905Y-104020952D01*
X156336905Y-104163810D01*
X156289286Y-104354286D01*
X156241667Y-104449524D01*
X156146429Y-104544762D01*
X156003571Y-104592381D01*
X155765476Y-104592381D01*
X157289286Y-104592381D02*
X156717857Y-104592381D01*
X157003571Y-104592381D02*
X157003571Y-103592381D01*
X156908333Y-103735238D01*
X156813095Y-103830476D01*
X156717857Y-103878095D01*
M02*
