G04 #@! TF.FileFunction,Copper,L2,Bot,Signal*
%FSLAX46Y46*%
G04 Gerber Fmt 4.6, Leading zero omitted, Abs format (unit mm)*
G04 Created by KiCad (PCBNEW 4.0.0-rc1-stable) date 20/10/2015 4:38:48 p.m.*
%MOMM*%
G01*
G04 APERTURE LIST*
%ADD10C,0.100000*%
%ADD11R,1.500000X1.300000*%
%ADD12R,1.300000X1.500000*%
%ADD13R,1.800860X0.800100*%
%ADD14R,3.540000X1.270000*%
%ADD15C,2.000000*%
%ADD16R,1.270000X3.540000*%
%ADD17C,0.600000*%
%ADD18C,0.250000*%
G04 APERTURE END LIST*
D10*
D11*
X126920000Y-96520000D03*
X129620000Y-96520000D03*
D12*
X142875000Y-90090000D03*
X142875000Y-92790000D03*
X145415000Y-90090000D03*
X145415000Y-92790000D03*
X147955000Y-90090000D03*
X147955000Y-92790000D03*
X150495000Y-90090000D03*
X150495000Y-92790000D03*
X153035000Y-90090000D03*
X153035000Y-92790000D03*
X155575000Y-90090000D03*
X155575000Y-92790000D03*
X158115000Y-90090000D03*
X158115000Y-92790000D03*
X152400000Y-104695000D03*
X152400000Y-107395000D03*
X152400000Y-98980000D03*
X152400000Y-101680000D03*
D13*
X145818860Y-106995000D03*
X145818860Y-105095000D03*
X148821140Y-106045000D03*
X145818860Y-100645000D03*
X145818860Y-98745000D03*
X148821140Y-99695000D03*
D14*
X110380000Y-102235000D03*
X116840000Y-102235000D03*
X110380000Y-99695000D03*
X116840000Y-99695000D03*
X110380000Y-97155000D03*
X116840000Y-97155000D03*
D15*
X160655000Y-95250000D03*
X158115000Y-95250000D03*
X155575000Y-95250000D03*
X153035000Y-95250000D03*
X150495000Y-95250000D03*
X147955000Y-95250000D03*
X145415000Y-95250000D03*
X142875000Y-95250000D03*
X140335000Y-95250000D03*
X140335000Y-110490000D03*
X142875000Y-110490000D03*
X145415000Y-110490000D03*
X147955000Y-110490000D03*
X150495000Y-110490000D03*
X153035000Y-110490000D03*
X155575000Y-110490000D03*
X158115000Y-110490000D03*
X140335000Y-99060000D03*
X140335000Y-101600000D03*
X140335000Y-104140000D03*
X140335000Y-106680000D03*
X160655000Y-110490000D03*
X163195000Y-110490000D03*
X165735000Y-110490000D03*
X168275000Y-110490000D03*
X170815000Y-109220000D03*
X170815000Y-106680000D03*
X170815000Y-104140000D03*
X170815000Y-101600000D03*
X170815000Y-99060000D03*
X170815000Y-96520000D03*
X168275000Y-95250000D03*
X165735000Y-95250000D03*
X163195000Y-95250000D03*
D16*
X160655000Y-99695000D03*
X160655000Y-106155000D03*
X163195000Y-99695000D03*
X163195000Y-106155000D03*
X165735000Y-99695000D03*
X165735000Y-106155000D03*
D17*
X138430000Y-97790000D03*
X177800000Y-113030000D03*
X180340000Y-98298000D03*
X138430000Y-108585000D03*
X168656000Y-102616000D03*
X168656000Y-108204000D03*
X167386000Y-103378024D03*
X167386000Y-106680000D03*
X161290000Y-103124000D03*
X168656000Y-99060000D03*
X154305000Y-104140000D03*
X147320000Y-104140000D03*
X120015000Y-102870000D03*
X114300000Y-107315000D03*
X128905000Y-94615000D03*
X121920000Y-95250000D03*
X125095000Y-88265000D03*
X111760000Y-93345000D03*
X120523000Y-94107000D03*
X129540000Y-93345000D03*
X133985000Y-90805000D03*
X132080000Y-88265000D03*
X119380000Y-93345000D03*
X121920000Y-112395000D03*
X109855000Y-112395000D03*
X150495000Y-86360000D03*
X153035000Y-86995000D03*
X116840000Y-107315000D03*
X129540000Y-112395000D03*
X155575000Y-87630000D03*
X158115000Y-88265000D03*
X119380000Y-112395000D03*
X132080000Y-113030000D03*
D18*
X163830000Y-108585000D02*
X165735000Y-110490000D01*
X160655000Y-95885000D02*
X158115000Y-98425000D01*
X159385000Y-108585000D02*
X163830000Y-108585000D01*
X158115000Y-98425000D02*
X158115000Y-107315000D01*
X158115000Y-107315000D02*
X159385000Y-108585000D01*
X160655000Y-95250000D02*
X160655000Y-95885000D01*
X148821140Y-99695000D02*
X149456140Y-100330000D01*
X149456140Y-100330000D02*
X158115000Y-100330000D01*
X116395000Y-97155000D02*
X123825000Y-97155000D01*
X137795000Y-98425000D02*
X138430000Y-97790000D01*
X125095000Y-98425000D02*
X137795000Y-98425000D01*
X123825000Y-97155000D02*
X125095000Y-98425000D01*
X148821140Y-99695000D02*
X148821140Y-102870000D01*
X148821140Y-102870000D02*
X148821140Y-106045000D01*
X158115000Y-95250000D02*
X158115000Y-92790000D01*
X155575000Y-95250000D02*
X155575000Y-92790000D01*
X153035000Y-95250000D02*
X153035000Y-92790000D01*
X150495000Y-95250000D02*
X150495000Y-92790000D01*
X147955000Y-95250000D02*
X147955000Y-92790000D01*
X145415000Y-95250000D02*
X145415000Y-92790000D01*
X142875000Y-95250000D02*
X142875000Y-92790000D01*
X129620000Y-96520000D02*
X129520000Y-96520000D01*
X129520000Y-96520000D02*
X128279999Y-95279999D01*
X128279999Y-95279999D02*
X128279999Y-94314999D01*
X128279999Y-94314999D02*
X128604999Y-93989999D01*
X128604999Y-93989999D02*
X139074999Y-93989999D01*
X139074999Y-93989999D02*
X139335001Y-94250001D01*
X139335001Y-94250001D02*
X140335000Y-95250000D01*
X172720000Y-114300000D02*
X176530000Y-114300000D01*
X176530000Y-114300000D02*
X177800000Y-113030000D01*
X171450000Y-113030000D02*
X172720000Y-114300000D01*
X170434000Y-113030000D02*
X171450000Y-113030000D01*
X140335000Y-110490000D02*
X142875000Y-113030000D01*
X142875000Y-113030000D02*
X170434000Y-113030000D01*
X142875000Y-110490000D02*
X144780000Y-112395000D01*
X144780000Y-112395000D02*
X175895000Y-112395000D01*
X175895000Y-112395000D02*
X180340000Y-107950000D01*
X180340000Y-107950000D02*
X180340000Y-98298000D01*
X152400000Y-101045000D02*
X150495000Y-102950000D01*
X147955000Y-107950000D02*
X145415000Y-110490000D01*
X150495000Y-107950000D02*
X147955000Y-107950000D01*
X150495000Y-102950000D02*
X150495000Y-107950000D01*
X152400000Y-107395000D02*
X151210000Y-108585000D01*
X149860000Y-108585000D02*
X147955000Y-110490000D01*
X151210000Y-108585000D02*
X149860000Y-108585000D01*
X110935000Y-99695000D02*
X112205000Y-98425000D01*
X124460000Y-99060000D02*
X140335000Y-99060000D01*
X123825000Y-98425000D02*
X124460000Y-99060000D01*
X112205000Y-98425000D02*
X123825000Y-98425000D01*
X110935000Y-102235000D02*
X112205000Y-100965000D01*
X133350000Y-101600000D02*
X140335000Y-101600000D01*
X132715000Y-100965000D02*
X133350000Y-101600000D01*
X112205000Y-100965000D02*
X132715000Y-100965000D01*
X113030000Y-107315000D02*
X113030000Y-105600000D01*
X138430000Y-108585000D02*
X135890000Y-106045000D01*
X135890000Y-106045000D02*
X116840000Y-106045000D01*
X114944999Y-107940001D02*
X113655001Y-107940001D01*
X116840000Y-106045000D02*
X114944999Y-107940001D01*
X113655001Y-107940001D02*
X113030000Y-107315000D01*
X113030000Y-105600000D02*
X116395000Y-102235000D01*
X168656000Y-102616000D02*
X163059000Y-102616000D01*
X163059000Y-102616000D02*
X160655000Y-105020000D01*
X160655000Y-105020000D02*
X160655000Y-106155000D01*
X170815000Y-109220000D02*
X169799000Y-108204000D01*
X169799000Y-108204000D02*
X168656000Y-108204000D01*
X166961736Y-103378024D02*
X167386000Y-103378024D01*
X163195000Y-105020000D02*
X164836976Y-103378024D01*
X163195000Y-106155000D02*
X163195000Y-105020000D01*
X164836976Y-103378024D02*
X166961736Y-103378024D01*
X170815000Y-106680000D02*
X167386000Y-106680000D01*
X170815000Y-104140000D02*
X167750000Y-104140000D01*
X167750000Y-104140000D02*
X167745000Y-104135000D01*
X167745000Y-104135000D02*
X166620000Y-104135000D01*
X166620000Y-104135000D02*
X165735000Y-105020000D01*
X165735000Y-105020000D02*
X165735000Y-106155000D01*
X170815000Y-101600000D02*
X168656000Y-101600000D01*
X168656000Y-101600000D02*
X166751000Y-99695000D01*
X166751000Y-99695000D02*
X165735000Y-99695000D01*
X161290000Y-103124000D02*
X163195000Y-101219000D01*
X163195000Y-101219000D02*
X163195000Y-99695000D01*
X170815000Y-99060000D02*
X168656000Y-99060000D01*
X168892787Y-97028000D02*
X162187000Y-97028000D01*
X162187000Y-97028000D02*
X160655000Y-98560000D01*
X160655000Y-98560000D02*
X160655000Y-99695000D01*
X170815000Y-96520000D02*
X169400787Y-96520000D01*
X169400787Y-96520000D02*
X168892787Y-97028000D01*
X145818860Y-105095000D02*
X146773860Y-104140000D01*
X154305000Y-104140000D02*
X152955000Y-104140000D01*
X146773860Y-104140000D02*
X147320000Y-104140000D01*
X152955000Y-104140000D02*
X152400000Y-104695000D01*
X120015000Y-104140000D02*
X118745000Y-105410000D01*
X118745000Y-105410000D02*
X116205000Y-105410000D01*
X120015000Y-102870000D02*
X120015000Y-104140000D01*
X136180002Y-105410000D02*
X116205000Y-105410000D01*
X139355002Y-108585000D02*
X136180002Y-105410000D01*
X144228860Y-108585000D02*
X139355002Y-108585000D01*
X145818860Y-106995000D02*
X144228860Y-108585000D01*
X116205000Y-105410000D02*
X114599999Y-107015001D01*
X114599999Y-107015001D02*
X114300000Y-107315000D01*
X145818860Y-98745000D02*
X146773860Y-97790000D01*
X151210000Y-97790000D02*
X152400000Y-98980000D01*
X146773860Y-97790000D02*
X151210000Y-97790000D01*
X137795000Y-95250000D02*
X137160000Y-94615000D01*
X139700000Y-97155000D02*
X137795000Y-95250000D01*
X145818860Y-100645000D02*
X144460000Y-100645000D01*
X142875000Y-97790000D02*
X142240000Y-97155000D01*
X142875000Y-99060000D02*
X142875000Y-97790000D01*
X144460000Y-100645000D02*
X142875000Y-99060000D01*
X142240000Y-97155000D02*
X139700000Y-97155000D01*
X137160000Y-94615000D02*
X130810000Y-94615000D01*
X130810000Y-94615000D02*
X128905000Y-94615000D01*
X124460000Y-96520000D02*
X123190000Y-96520000D01*
X123190000Y-96520000D02*
X121920000Y-95250000D01*
X126920000Y-96520000D02*
X124460000Y-96520000D01*
X123190000Y-88265000D02*
X125095000Y-88265000D01*
X111760000Y-93345000D02*
X111760000Y-92075000D01*
X111760000Y-92075000D02*
X113030000Y-90805000D01*
X113030000Y-90805000D02*
X120650000Y-90805000D01*
X120650000Y-90805000D02*
X123190000Y-88265000D01*
X142875000Y-90090000D02*
X126920000Y-90090000D01*
X126920000Y-90090000D02*
X125095000Y-88265000D01*
X142875000Y-90090000D02*
X142875000Y-89990000D01*
X129540000Y-93345000D02*
X121285000Y-93345000D01*
X121285000Y-93345000D02*
X120523000Y-94107000D01*
X145415000Y-90090000D02*
X145415000Y-91440000D01*
X145415000Y-91440000D02*
X140970000Y-91440000D01*
X139065000Y-93345000D02*
X129540000Y-93345000D01*
X140970000Y-91440000D02*
X139065000Y-93345000D01*
X121920000Y-90805000D02*
X133985000Y-90805000D01*
X119380000Y-93345000D02*
X121920000Y-90805000D01*
X135255000Y-88265000D02*
X132080000Y-88265000D01*
X147955000Y-90090000D02*
X147955000Y-88900000D01*
X147955000Y-88900000D02*
X147320000Y-88265000D01*
X147320000Y-88265000D02*
X135255000Y-88265000D01*
X110490000Y-111125000D02*
X120650000Y-111125000D01*
X120650000Y-111125000D02*
X121920000Y-112395000D01*
X109855000Y-111760000D02*
X110490000Y-111125000D01*
X109855000Y-112395000D02*
X109855000Y-111760000D01*
X150495000Y-90090000D02*
X150495000Y-86360000D01*
X153035000Y-86995000D02*
X153035000Y-90090000D01*
X119380000Y-109855000D02*
X116840000Y-107315000D01*
X127000000Y-109855000D02*
X119380000Y-109855000D01*
X129540000Y-112395000D02*
X127000000Y-109855000D01*
X155575000Y-87630000D02*
X155575000Y-90090000D01*
X158115000Y-88265000D02*
X158115000Y-90090000D01*
X120015000Y-113030000D02*
X119380000Y-112395000D01*
X120650000Y-113030000D02*
X120015000Y-113030000D01*
X132080000Y-113030000D02*
X120650000Y-113030000D01*
M02*
