G04 #@! TF.FileFunction,Copper,L1,Top,Signal*
%FSLAX46Y46*%
G04 Gerber Fmt 4.6, Leading zero omitted, Abs format (unit mm)*
G04 Created by KiCad (PCBNEW 4.0.0-rc1-stable) date 20/10/2015 4:38:48 p.m.*
%MOMM*%
G01*
G04 APERTURE LIST*
%ADD10C,0.100000*%
%ADD11R,1.700000X3.400000*%
%ADD12R,1.500000X1.300000*%
%ADD13C,2.000000*%
%ADD14R,1.300000X1.550000*%
%ADD15C,0.600000*%
%ADD16C,0.250000*%
G04 APERTURE END LIST*
D10*
D11*
X109220000Y-109830000D03*
X111760000Y-109830000D03*
X114300000Y-109830000D03*
X116840000Y-109830000D03*
X119380000Y-109830000D03*
X119380000Y-90830000D03*
X116840000Y-90830000D03*
X114300000Y-90830000D03*
X111760000Y-90830000D03*
X109220000Y-90830000D03*
D12*
X177245000Y-98425000D03*
X174545000Y-98425000D03*
X177245000Y-101600000D03*
X174545000Y-101600000D03*
D11*
X121920000Y-109830000D03*
X124460000Y-109830000D03*
X127000000Y-109830000D03*
X129540000Y-109830000D03*
X132080000Y-109830000D03*
X132080000Y-90830000D03*
X129540000Y-90830000D03*
X127000000Y-90830000D03*
X124460000Y-90830000D03*
X121920000Y-90830000D03*
D13*
X160655000Y-95250000D03*
X158115000Y-95250000D03*
X155575000Y-95250000D03*
X153035000Y-95250000D03*
X150495000Y-95250000D03*
X147955000Y-95250000D03*
X145415000Y-95250000D03*
X142875000Y-95250000D03*
X140335000Y-95250000D03*
X140335000Y-110490000D03*
X142875000Y-110490000D03*
X145415000Y-110490000D03*
X147955000Y-110490000D03*
X150495000Y-110490000D03*
X153035000Y-110490000D03*
X155575000Y-110490000D03*
X158115000Y-110490000D03*
X140335000Y-99060000D03*
X140335000Y-101600000D03*
X140335000Y-104140000D03*
X140335000Y-106680000D03*
X160655000Y-110490000D03*
X163195000Y-110490000D03*
X165735000Y-110490000D03*
X168275000Y-110490000D03*
X170815000Y-109220000D03*
X170815000Y-106680000D03*
X170815000Y-104140000D03*
X170815000Y-101600000D03*
X170815000Y-99060000D03*
X170815000Y-96520000D03*
X168275000Y-95250000D03*
X165735000Y-95250000D03*
X163195000Y-95250000D03*
D14*
X175205000Y-104775000D03*
X179705000Y-104775000D03*
X179705000Y-112725000D03*
X175205000Y-112725000D03*
X175205000Y-87300000D03*
X179705000Y-87300000D03*
X179705000Y-95250000D03*
X175205000Y-95250000D03*
D15*
X138430000Y-97790000D03*
X177800000Y-113030000D03*
X180340000Y-98298000D03*
X138430000Y-108585000D03*
X168656000Y-102616000D03*
X168656000Y-108204000D03*
X167386000Y-103378024D03*
X167386000Y-106680000D03*
X161290000Y-103124000D03*
X168656000Y-99060000D03*
X154305000Y-104140000D03*
X147320000Y-104140000D03*
X120015000Y-102870000D03*
X114300000Y-107315000D03*
X128905000Y-94615000D03*
X121920000Y-95250000D03*
X125095000Y-88265000D03*
X111760000Y-93345000D03*
X120523000Y-94107000D03*
X129540000Y-93345000D03*
X133985000Y-90805000D03*
X132080000Y-88265000D03*
X119380000Y-93345000D03*
X121920000Y-112395000D03*
X109855000Y-112395000D03*
X150495000Y-86360000D03*
X153035000Y-86995000D03*
X116840000Y-107315000D03*
X129540000Y-112395000D03*
X155575000Y-87630000D03*
X158115000Y-88265000D03*
X119380000Y-112395000D03*
X132080000Y-113030000D03*
D16*
X160655000Y-95250000D02*
X168605000Y-87300000D01*
X168605000Y-87300000D02*
X175205000Y-87300000D01*
X175205000Y-95250000D02*
X175205000Y-94225000D01*
X175205000Y-94225000D02*
X175205000Y-87300000D01*
X165735000Y-110490000D02*
X165735000Y-111904213D01*
X165735000Y-111904213D02*
X166225787Y-112395000D01*
X173975000Y-112395000D02*
X174305000Y-112725000D01*
X166225787Y-112395000D02*
X173975000Y-112395000D01*
X174305000Y-112725000D02*
X175205000Y-112725000D01*
X175205000Y-112725000D02*
X175205000Y-104775000D01*
X158750000Y-97155000D02*
X160655000Y-95250000D01*
X139065000Y-97155000D02*
X158750000Y-97155000D01*
X138430000Y-97790000D02*
X139065000Y-97155000D01*
X178535000Y-101600000D02*
X177245000Y-101600000D01*
X179705000Y-104775000D02*
X179705000Y-102770000D01*
X179705000Y-102770000D02*
X178535000Y-101600000D01*
X179705000Y-112725000D02*
X179705000Y-104775000D01*
X177800000Y-113030000D02*
X179400000Y-113030000D01*
X179400000Y-113030000D02*
X179705000Y-112725000D01*
X180340000Y-98298000D02*
X177372000Y-98298000D01*
X177372000Y-98298000D02*
X177245000Y-98425000D01*
X179705000Y-95250000D02*
X179705000Y-87300000D01*
X180340000Y-98298000D02*
X180340000Y-95885000D01*
X180340000Y-95885000D02*
X179705000Y-95250000D01*
X174545000Y-101600000D02*
X174545000Y-98425000D01*
X160655000Y-110490000D02*
X160655000Y-111760000D01*
X160655000Y-111760000D02*
X161925000Y-113030000D01*
X161925000Y-113030000D02*
X172466000Y-113030000D01*
X172466000Y-113030000D02*
X173736000Y-114300000D01*
X173736000Y-114300000D02*
X176022000Y-114300000D01*
X176022000Y-114300000D02*
X176530000Y-113792000D01*
X176530000Y-113792000D02*
X176530000Y-103485000D01*
X176530000Y-103485000D02*
X174645000Y-101600000D01*
X174645000Y-101600000D02*
X174545000Y-101600000D01*
X166370000Y-108585000D02*
X138430000Y-108585000D01*
X168275000Y-110490000D02*
X166370000Y-108585000D01*
X168656000Y-108204000D02*
X168656000Y-102616000D01*
X167386000Y-106680000D02*
X167386000Y-103378024D01*
X167132000Y-102108000D02*
X162306000Y-102108000D01*
X162306000Y-102108000D02*
X161290000Y-103124000D01*
X168656000Y-100584000D02*
X167132000Y-102108000D01*
X168656000Y-99060000D02*
X168656000Y-100584000D01*
X147320000Y-104140000D02*
X154305000Y-104140000D01*
X114300000Y-90830000D02*
X114300000Y-93345000D01*
X114300000Y-93345000D02*
X120015000Y-99060000D01*
X120015000Y-99060000D02*
X120015000Y-102870000D01*
X114300000Y-109830000D02*
X114300000Y-107315000D01*
X128270000Y-94615000D02*
X128905000Y-94615000D01*
X128270000Y-94615000D02*
X128270000Y-101600000D01*
X128270000Y-101600000D02*
X125730000Y-104140000D01*
X107315000Y-111760000D02*
X109220000Y-113665000D01*
X125730000Y-104140000D02*
X111125000Y-104140000D01*
X111125000Y-104140000D02*
X107315000Y-107950000D01*
X107315000Y-107950000D02*
X107315000Y-111760000D01*
X109220000Y-113665000D02*
X125095000Y-113665000D01*
X125095000Y-113665000D02*
X127000000Y-111760000D01*
X127000000Y-111760000D02*
X127000000Y-109830000D01*
X127000000Y-93345000D02*
X127000000Y-90830000D01*
X128270000Y-94615000D02*
X127000000Y-93345000D01*
X121920000Y-95250000D02*
X121920000Y-90830000D01*
X109220000Y-90830000D02*
X109220000Y-89535000D01*
X109220000Y-89535000D02*
X110490000Y-88265000D01*
X110490000Y-88265000D02*
X121285000Y-88265000D01*
X121285000Y-88265000D02*
X121920000Y-88900000D01*
X121920000Y-88900000D02*
X121920000Y-90830000D01*
X125095000Y-88265000D02*
X124460000Y-88900000D01*
X124460000Y-88900000D02*
X124460000Y-90830000D01*
X111760000Y-90830000D02*
X111760000Y-93345000D01*
X120523000Y-94107000D02*
X118237000Y-94107000D01*
X116840000Y-92710000D02*
X116840000Y-90830000D01*
X118237000Y-94107000D02*
X116840000Y-92710000D01*
X129540000Y-93345000D02*
X129540000Y-90830000D01*
X130175000Y-91440000D02*
X129540000Y-90830000D01*
X133985000Y-90805000D02*
X132105000Y-90805000D01*
X132105000Y-90805000D02*
X132080000Y-90830000D01*
X132080000Y-88265000D02*
X132080000Y-90830000D01*
X119380000Y-90830000D02*
X119380000Y-93345000D01*
X121920000Y-112395000D02*
X121920000Y-109830000D01*
X109220000Y-109830000D02*
X109220000Y-111780000D01*
X109220000Y-111780000D02*
X109835000Y-112395000D01*
X109835000Y-112395000D02*
X109855000Y-112395000D01*
X150495000Y-86360000D02*
X139700000Y-86360000D01*
X139700000Y-86360000D02*
X135890000Y-90170000D01*
X135890000Y-90170000D02*
X135890000Y-103505000D01*
X135890000Y-103505000D02*
X133985000Y-105410000D01*
X133985000Y-105410000D02*
X124460000Y-105410000D01*
X124460000Y-105410000D02*
X121920000Y-107950000D01*
X121920000Y-107950000D02*
X121920000Y-109830000D01*
X121920000Y-108585000D02*
X121920000Y-109830000D01*
X153035000Y-86995000D02*
X140335000Y-86995000D01*
X140335000Y-86995000D02*
X136525000Y-90805000D01*
X136525000Y-90805000D02*
X136525000Y-104140000D01*
X136525000Y-104140000D02*
X134620000Y-106045000D01*
X134620000Y-106045000D02*
X126365000Y-106045000D01*
X126365000Y-106045000D02*
X124460000Y-107950000D01*
X124460000Y-107950000D02*
X124460000Y-109830000D01*
X111760000Y-109830000D02*
X111760000Y-111760000D01*
X124460000Y-111760000D02*
X124460000Y-109830000D01*
X123190000Y-113030000D02*
X124460000Y-111760000D01*
X113030000Y-113030000D02*
X123190000Y-113030000D01*
X111760000Y-111760000D02*
X113030000Y-113030000D01*
X111760000Y-109830000D02*
X111760000Y-111125000D01*
X129540000Y-107950000D02*
X129540000Y-109830000D01*
X130810000Y-106680000D02*
X129540000Y-107950000D01*
X135255000Y-106680000D02*
X130810000Y-106680000D01*
X137160000Y-104775000D02*
X135255000Y-106680000D01*
X137160000Y-104775000D02*
X137160000Y-91440000D01*
X137160000Y-91440000D02*
X140970000Y-87630000D01*
X140970000Y-87630000D02*
X155575000Y-87630000D01*
X129540000Y-109830000D02*
X129540000Y-112395000D01*
X116840000Y-107315000D02*
X116840000Y-109830000D01*
X116840000Y-109830000D02*
X116840000Y-109220000D01*
X158115000Y-88265000D02*
X141605000Y-88265000D01*
X141605000Y-88265000D02*
X137795000Y-92075000D01*
X132645000Y-107315000D02*
X132080000Y-107880000D01*
X137795000Y-92075000D02*
X137795000Y-105410000D01*
X132080000Y-107880000D02*
X132080000Y-109830000D01*
X137795000Y-105410000D02*
X135890000Y-107315000D01*
X135890000Y-107315000D02*
X132645000Y-107315000D01*
X132080000Y-109830000D02*
X132080000Y-113030000D01*
X119380000Y-112395000D02*
X119380000Y-109830000D01*
X132080000Y-109830000D02*
X132080000Y-109220000D01*
M02*
